<svg xmlns="http://www.w3.org/2000/svg" width="1024" height="1024" viewBox="0 0 1024 1024">
  <title>竹简</title>
  <desc>深青色圆角底上的五枚金色竹简，以两道编绳相连，竹片上的刻线呼应代码。</desc>
  <defs>
    <linearGradient id="jade" x1="180" y1="96" x2="844" y2="960" gradientUnits="userSpaceOnUse">
      <stop stop-color="#38665e"/><stop offset="1" stop-color="#153a36"/>
    </linearGradient>
    <linearGradient id="bamboo" x1="0" y1="228" x2="0" y2="784" gradientUnits="userSpaceOnUse">
      <stop stop-color="#f6e8c4"/><stop offset="1" stop-color="#d8bd7c"/>
    </linearGradient>
  </defs>
  <rect x="64" y="64" width="896" height="896" rx="196" fill="url(#jade)"/>
  <rect x="74" y="74" width="876" height="876" rx="188" fill="none" stroke="#b3d2bd" stroke-opacity=".14" stroke-width="4"/>
  <g transform="rotate(-7 512 512)">
    <path d="M262 283q0-22 22-22h66v-8q0-22 22-22h76v-10q0-22 22-22h84q22 0 22 22v10h76q22 0 22 22v8h66q22 0 22 22v494q0 22-22 22h-66v8q0 22-22 22h-76v10q0 22-22 22h-84q-22 0-22-22v-10h-76q-22 0-22-22v-8h-66q-22 0-22-22z" fill="#082f2b" opacity=".35" transform="translate(0 16)"/>
    <g fill="url(#bamboo)">
      <rect x="262" y="261" width="88" height="538" rx="18"/>
      <rect x="364" y="239" width="88" height="582" rx="18"/>
      <rect x="466" y="217" width="92" height="626" rx="18"/>
      <rect x="572" y="239" width="88" height="582" rx="18"/>
      <rect x="674" y="261" width="88" height="538" rx="18"/>
    </g>
    <g fill="none" stroke="#fff5d8" stroke-opacity=".55" stroke-width="5" stroke-linecap="round">
      <path d="M275 286v487M377 264v531M479 242v574M585 264v531M687 286v487"/>
    </g>
    <g fill="none" stroke="#836d3d" stroke-opacity=".76" stroke-width="10" stroke-linecap="round">
      <path d="M295 466h20m-20 32h27m-27 32h16M397 454h22m-22 32h22m-22 32h14m-14 32h22M500 442h24m-24 32h24m-24 32h16m-16 32h24m-24 32h18M605 454h22m-22 32h16m-16 32h22m-22 32h22M707 466h22m-22 32h15m-15 32h22"/>
    </g>
    <g fill="none" stroke-linecap="round">
      <path d="M242 392q270 28 540 0M242 658q270 28 540 0" stroke="#6d5834" stroke-width="22"/>
      <path d="M242 388q270 28 540 0M242 654q270 28 540 0" stroke="#bb9657" stroke-width="10"/>
    </g>
  </g>
</svg>
